<?xml version='1.0' encoding='UTF-8'?>
<svg x="0px" y="0px" viewBox="0 0 32 32" version="1.1" xmlns="http://www.w3.org/2000/svg" xmlns:xlink="http://www.w3.org/1999/xlink" xml:space="preserve" id="Multiple_Documents" style="enable-background:new 0 0 32 32">
  <style type="text/css">
	.Black{fill:#727272;}
</style>
  <path d="M31,8h-5V5c0-0.5-0.5-1-1-1h-5V1c0-0.5-0.5-1-1-1H1C0.5,0,0,0.5,0,1v22c0,0.5,0.5,1,1,1h5v3c0,0.5,0.5,1,1,1  h5v3c0,0.5,0.5,1,1,1h18c0.5,0,1-0.5,1-1V9C32,8.5,31.5,8,31,8z M6,5v17H2V2h16v2H7C6.5,4,6,4.5,6,5z M12,9v17H8V6h16v2H13  C12.5,8,12,8.5,12,9z M30,30H14V10h16V30z" class="Black" />
</svg>